<svg width="44" height="44" viewBox="0 0 44 44" fill="none" xmlns="http://www.w3.org/2000/svg">
<path d="M17.1661 12.9635C17.2563 12.8736 17.3633 12.8024 17.4811 12.7539C17.5988 12.7054 17.725 12.6807 17.8523 12.6811L30.166 12.7693C30.2937 12.7697 30.4201 12.7954 30.5379 12.8449C30.6556 12.8944 30.7624 12.9667 30.852 13.0576C30.9417 13.1486 31.0125 13.2564 31.0603 13.3748C31.108 13.4933 31.1319 13.62 31.1305 13.7477L31.0422 26.0615C31.0413 26.189 31.0153 26.3152 30.9656 26.4327C30.9159 26.5502 30.8436 26.6567 30.7528 26.7463C30.6619 26.8359 30.5543 26.9067 30.4361 26.9546C30.3179 27.0026 30.1914 27.0268 30.0638 27.0259C29.9363 27.025 29.8101 26.999 29.6926 26.9493C29.5751 26.8996 29.4685 26.8273 29.379 26.7365C29.2894 26.6456 29.2186 26.538 29.1707 26.4198C29.1227 26.3016 29.0985 26.1751 29.0994 26.0475L29.1876 14.6984L17.8384 14.6239C17.7106 14.6235 17.5843 14.5979 17.4665 14.5484C17.3488 14.4989 17.242 14.4266 17.1523 14.3356C17.0627 14.2447 16.9919 14.1369 16.9441 14.0184C16.8963 13.9 16.8725 13.7733 16.8739 13.6456C16.8753 13.5182 16.9019 13.3924 16.952 13.2754C17.0022 13.1584 17.0749 13.0524 17.1661 12.9635Z" fill="white"/>
<path d="M12.9439 29.3524L29.4799 13.0517C29.6626 12.8716 29.9094 12.7714 30.166 12.7733C30.4226 12.7751 30.6679 12.8788 30.8481 13.0616C31.0282 13.2443 31.1284 13.4911 31.1265 13.7477C31.1247 14.0043 31.021 14.2496 30.8382 14.4297L14.3023 30.7304C14.1195 30.9105 13.8727 31.0107 13.6162 31.0088C13.3596 31.007 13.1142 30.9033 12.9341 30.7206C12.754 30.5378 12.6538 30.291 12.6556 30.0344C12.6575 29.7779 12.7612 29.5325 12.9439 29.3524Z" fill="white"/>
</svg>
