<svg width="41" height="41" viewBox="0 0 41 41" fill="none" xmlns="http://www.w3.org/2000/svg">
<path d="M20.1563 40.3125C16.1697 40.3125 12.2727 39.1304 8.95805 36.9156C5.64337 34.7008 3.05989 31.5528 1.53431 27.8697C0.00873358 24.1866 -0.390428 20.1339 0.387306 16.224C1.16504 12.314 3.08474 8.72254 5.90364 5.90364C8.72254 3.08474 12.314 1.16504 16.224 0.387306C20.1339 -0.390428 24.1866 0.00873358 27.8697 1.53431C31.5528 3.05989 34.7008 5.64337 36.9156 8.95805C39.1304 12.2727 40.3125 16.1697 40.3125 20.1563C40.3125 25.502 38.1889 30.6289 34.4089 34.4089C30.6289 38.1889 25.502 40.3125 20.1563 40.3125ZM20.1563 2.68751C16.7013 2.68751 13.3239 3.71203 10.4511 5.63152C7.57842 7.55101 5.33941 10.2793 4.01724 13.4713C2.69507 16.6633 2.34913 20.1756 3.02317 23.5642C3.6972 26.9529 5.36094 30.0655 7.80399 32.5085C10.247 34.9516 13.3597 36.6153 16.7483 37.2894C20.1369 37.9634 23.6493 37.6174 26.8413 36.2953C30.0333 34.9731 32.7615 32.7341 34.681 29.8614C36.6005 26.9887 37.625 23.6113 37.625 20.1563C37.625 15.5233 35.7846 11.08 32.5085 7.80399C29.2325 4.52796 24.7893 2.68751 20.1563 2.68751Z" fill="white"/>
<path d="M17.0253 28.2187C16.8411 28.2182 16.6589 28.1797 16.4902 28.1057C16.3214 28.0317 16.1697 27.9238 16.0444 27.7887L9.76907 21.07C9.55465 20.8056 9.44859 20.4696 9.47232 20.13C9.49605 19.7904 9.64779 19.4724 9.8969 19.2404C10.146 19.0084 10.4739 18.8795 10.8143 18.8799C11.1548 18.8803 11.4824 19.0099 11.7309 19.2425L17.0253 24.8997L28.5816 12.5237C28.6976 12.3807 28.8418 12.2629 29.0053 12.1779C29.1687 12.0929 29.3479 12.0424 29.5316 12.0296C29.7154 12.0168 29.8999 12.0419 30.0736 12.1033C30.2472 12.1648 30.4064 12.2613 30.5412 12.3868C30.676 12.5124 30.7835 12.6643 30.8572 12.8332C30.9308 13.0021 30.9688 13.1843 30.9691 13.3686C30.9693 13.5528 30.9316 13.7351 30.8584 13.9041C30.7852 14.0732 30.678 14.2254 30.5434 14.3512L18.0063 27.7887C17.881 27.9238 17.7292 28.0317 17.5605 28.1057C17.3917 28.1797 17.2096 28.2182 17.0253 28.2187Z" fill="white"/>
</svg>
