<svg width="33" height="33" viewBox="0 0 33 33" fill="none" xmlns="http://www.w3.org/2000/svg">
<circle cx="16.5" cy="16.5" r="16.5" fill="#A91919"/>
<path d="M12.5677 16.5215C13.5877 18.526 15.2275 20.1658 17.2356 21.1858L18.794 19.624C18.9887 19.4292 19.2685 19.3725 19.5129 19.4504C20.3062 19.7125 21.1598 19.8542 22.0417 19.8542C22.4348 19.8542 22.75 20.1694 22.75 20.5625V23.0417C22.75 23.4348 22.4348 23.75 22.0417 23.75C15.3904 23.75 10 18.3596 10 11.7083C10 11.3152 10.3187 11 10.7083 11H13.1875C13.5806 11 13.8958 11.3152 13.8958 11.7083C13.8958 12.5902 14.0375 13.4438 14.2996 14.2371C14.3775 14.4815 14.3208 14.7612 14.126 14.956L12.5677 16.5215Z" fill="#FBF7F7"/>
</svg>
