<svg width="13" height="13" viewBox="0 0 13 13" fill="none" xmlns="http://www.w3.org/2000/svg">
<path d="M2.56771 5.52146C3.58771 7.52604 5.2275 9.16583 7.23562 10.1858L8.79396 8.62396C8.98875 8.42917 9.26854 8.3725 9.51292 8.45042C10.3062 8.7125 11.1598 8.85417 12.0417 8.85417C12.4348 8.85417 12.75 9.16937 12.75 9.5625V12.0417C12.75 12.4348 12.4348 12.75 12.0417 12.75C5.39042 12.75 0 7.35958 0 0.708333C0 0.315208 0.31875 0 0.708333 0H3.1875C3.58062 0 3.89583 0.315208 3.89583 0.708333C3.89583 1.59021 4.0375 2.44375 4.29958 3.23708C4.3775 3.48146 4.32083 3.76125 4.12604 3.95604L2.56771 5.52146Z" fill="#FBF7F7"/>
</svg>
